<svg width="40" height="40" viewBox="0 0 40 40" fill="none" xmlns="http://www.w3.org/2000/svg">
<circle cx="20" cy="20" r="20" fill="#F3FBF8"/>
<path fill-rule="evenodd" clip-rule="evenodd" d="M14.764 30C15.186 30 15.529 30.343 15.529 30.765C15.529 31.187 15.186 31.529 14.764 31.529C14.342 31.529 14 31.187 14 30.765C14 30.343 14.342 30 14.764 30Z" stroke="#222222" stroke-width="1.5" stroke-linecap="round" stroke-linejoin="round"/>
<path d="M10 13L12.08 13.36L13.043 24.833C13.121 25.768 13.902 26.486 14.84 26.486H25.752C26.648 26.486 27.408 25.828 27.537 24.94L28.486 18.382C28.603 17.573 27.976 16.849 27.159 16.849H12.414" stroke="#222222" stroke-width="1.5" stroke-linecap="round" stroke-linejoin="round"/>
<circle cx="23.0269" cy="11.0269" r="3.0269" fill="#09A66D"/>
<path fill-rule="evenodd" clip-rule="evenodd" d="M25.764 30C26.186 30 26.529 30.343 26.529 30.765C26.529 31.187 26.186 31.529 25.764 31.529C25.342 31.529 25 31.187 25 30.765C25 30.343 25.342 30 25.764 30Z" stroke="#222222" stroke-width="1.5" stroke-linecap="round" stroke-linejoin="round"/>
<path d="M22 19.502H24.773" stroke="#222222" stroke-width="1.5" stroke-linecap="round" stroke-linejoin="round"/>
</svg>

