<svg width="104" height="30" viewBox="0 0 104 30" fill="none" xmlns="http://www.w3.org/2000/svg">
<path d="M100.148 0H3.85185C1.72453 0 0 1.67893 0 3.75V26.25C0 28.3211 1.72453 30 3.85185 30H100.148C102.275 30 104 28.3211 104 26.25V3.75C104 1.67893 102.275 0 100.148 0Z" fill="black"/>
<path d="M100.148 0.6C101.006 0.6 101.829 0.931874 102.436 1.52261C103.043 2.11335 103.384 2.91457 103.384 3.75V26.25C103.384 27.0854 103.043 27.8866 102.436 28.4774C101.829 29.0681 101.006 29.4 100.148 29.4H3.85185C2.99373 29.4 2.17075 29.0681 1.56397 28.4774C0.957184 27.8866 0.616296 27.0854 0.616296 26.25V3.75C0.616296 2.91457 0.957184 2.11335 1.56397 1.52261C2.17075 0.931874 2.99373 0.6 3.85185 0.6H100.148ZM100.148 0H3.85185C2.83028 0 1.85054 0.395088 1.12818 1.09835C0.405819 1.80161 0 2.75544 0 3.75V26.25C0 27.2446 0.405819 28.1984 1.12818 28.9017C1.85054 29.6049 2.83028 30 3.85185 30H100.148C101.17 30 102.149 29.6049 102.872 28.9017C103.594 28.1984 104 27.2446 104 26.25V3.75C104 2.75544 103.594 1.80161 102.872 1.09835C102.149 0.395088 101.17 0 100.148 0Z" fill="#A6A6A6"/>
<path d="M52.4929 16.3126C51.846 16.3156 51.2145 16.505 50.6781 16.8571C50.1418 17.2091 49.7245 17.7079 49.4791 18.2906C49.2336 18.8733 49.171 19.5138 49.299 20.1311C49.4271 20.7484 49.7401 21.315 50.1986 21.7592C50.6571 22.2035 51.2405 22.5056 51.8752 22.6274C52.5099 22.7492 53.1674 22.6852 53.7648 22.4435C54.3621 22.2018 54.8726 21.7933 55.2317 21.2694C55.5907 20.7455 55.7824 20.1299 55.7824 19.5001C55.7887 19.0785 55.7078 18.6601 55.5445 18.2696C55.3812 17.8791 55.1389 17.5246 54.8319 17.2272C54.525 16.9298 54.1598 16.6956 53.7579 16.5384C53.3561 16.3813 52.9259 16.3045 52.4929 16.3126V16.3126ZM52.4929 21.4351C52.0951 21.4622 51.6981 21.3721 51.3535 21.1766C51.0089 20.9811 50.7327 20.6893 50.5608 20.3389C50.3889 19.9886 50.3292 19.596 50.3895 19.2122C50.4499 18.8284 50.6274 18.4711 50.899 18.1869C51.1706 17.9026 51.5238 17.7044 51.9126 17.6182C52.3015 17.5319 52.708 17.5615 53.0793 17.7032C53.4506 17.8448 53.7696 18.0919 53.9948 18.4124C54.2199 18.7328 54.3408 19.1118 54.3418 19.5001C54.3542 19.7461 54.3159 19.992 54.2291 20.2234C54.1423 20.4548 54.0089 20.6669 53.8365 20.8472C53.6642 21.0276 53.4566 21.1725 53.2258 21.2735C52.995 21.3744 52.7458 21.4294 52.4929 21.4351ZM45.3208 16.3126C44.6735 16.3141 44.0413 16.5023 43.5039 16.8534C42.9665 17.2046 42.548 17.7029 42.3014 18.2855C42.0548 18.868 41.991 19.5087 42.1182 20.1265C42.2454 20.7443 42.5579 21.3116 43.0161 21.7566C43.4743 22.2017 44.0577 22.5045 44.6926 22.6269C45.3274 22.7493 45.9854 22.6857 46.5832 22.4442C47.181 22.2028 47.6919 21.7942 48.0513 21.2702C48.4107 20.7462 48.6025 20.1302 48.6025 19.5001C48.6088 19.0785 48.5279 18.6601 48.3646 18.2696C48.2013 17.8791 47.959 17.5246 47.6521 17.2272C47.3452 16.9298 46.9799 16.6956 46.5781 16.5384C46.1762 16.3813 45.746 16.3045 45.3131 16.3126H45.3208ZM45.3208 21.4351C44.9227 21.4637 44.5251 21.375 44.1796 21.1805C43.834 20.986 43.5567 20.6948 43.3836 20.3447C43.2104 19.9946 43.1496 19.6018 43.2089 19.2176C43.2683 18.8333 43.4451 18.4754 43.7163 18.1904C43.9876 17.9053 44.3406 17.7064 44.7296 17.6194C45.1186 17.5325 45.5255 17.5615 45.8973 17.7029C46.2691 17.8442 46.5885 18.0912 46.8141 18.4117C47.0396 18.7323 47.1609 19.1115 47.1619 19.5001C47.1744 19.7461 47.136 19.992 47.0493 20.2234C46.9625 20.4548 46.829 20.6669 46.6567 20.8472C46.4844 21.0276 46.2767 21.1725 46.0459 21.2735C45.8152 21.3744 45.566 21.4294 45.3131 21.4351H45.3208ZM36.7774 17.2951V18.6451H40.1054C40.0532 19.2809 39.7817 19.8809 39.335 20.3476C39.002 20.6778 38.6018 20.9364 38.1599 21.1069C37.7181 21.2774 37.2445 21.356 36.7697 21.3376C35.7889 21.3376 34.8484 20.9583 34.1549 20.2832C33.4615 19.608 33.0719 18.6924 33.0719 17.7376C33.0719 16.7828 33.4615 15.8671 34.1549 15.192C34.8484 14.5169 35.7889 14.1376 36.7697 14.1376C37.7078 14.1227 38.6137 14.4706 39.2888 15.1051L40.2671 14.1526C39.8114 13.7034 39.2678 13.3478 38.6683 13.1068C38.0689 12.8659 37.4258 12.7446 36.7774 12.7501C36.0925 12.7241 35.4093 12.8331 34.7687 13.0703C34.1281 13.3076 33.5433 13.6683 33.0493 14.1308C32.5554 14.5934 32.1624 15.1483 31.894 15.7622C31.6255 16.3762 31.4872 17.0366 31.4872 17.7038C31.4872 18.3711 31.6255 19.0315 31.894 19.6454C32.1624 20.2594 32.5554 20.8143 33.0493 21.2768C33.5433 21.7394 34.1281 22.1001 34.7687 22.3374C35.4093 22.5746 36.0925 22.6835 36.7774 22.6576C37.4368 22.6866 38.0949 22.5778 38.7075 22.3384C39.3201 22.0991 39.8729 21.7348 40.3288 21.2701C41.1359 20.4068 41.5668 19.2719 41.5305 18.1051C41.533 17.8208 41.5072 17.537 41.4535 17.2576L36.7774 17.2951ZM71.6828 18.3451C71.4819 17.7696 71.1062 17.2672 70.6055 16.9042C70.1047 16.5413 69.5026 16.335 68.8787 16.3126C68.4573 16.3118 68.0402 16.3951 67.6532 16.5575C67.2662 16.7198 66.9175 16.9577 66.6287 17.2565C66.3399 17.5552 66.1171 17.9085 65.9741 18.2944C65.8311 18.6803 65.7709 19.0906 65.7972 19.5001C65.7878 19.9193 65.8654 20.336 66.0251 20.7254C66.1849 21.1147 66.4236 21.4687 66.7271 21.7663C67.0305 22.0638 67.3925 22.2987 67.7913 22.457C68.1901 22.6153 68.6175 22.6937 69.0482 22.6876C69.587 22.6904 70.1182 22.5631 70.5942 22.317C71.0701 22.071 71.4759 21.7138 71.7753 21.2776L70.6582 20.5276C70.4915 20.7982 70.2555 21.022 69.9733 21.1771C69.691 21.3323 69.3723 21.4134 69.0482 21.4126C68.7145 21.425 68.3847 21.3393 68.1016 21.1668C67.8186 20.9942 67.5955 20.7428 67.4612 20.4451L71.8446 18.6826L71.6828 18.3451ZM67.2147 19.4101C67.1991 19.1781 67.2312 18.9454 67.3091 18.7257C67.387 18.5059 67.5091 18.3035 67.6684 18.1303C67.8277 17.9571 68.0208 17.8165 68.2366 17.7169C68.4524 17.6173 68.6864 17.5606 68.9249 17.5501C69.1734 17.5341 69.4212 17.5896 69.6376 17.7096C69.854 17.8296 70.0294 18.0089 70.1421 18.2251L67.2147 19.4101ZM63.6556 22.5001H65.0962V13.1251H63.6556V22.5001ZM61.2982 17.0251H61.2443C61.0272 16.7888 60.7612 16.5998 60.4638 16.4705C60.1665 16.3413 59.8444 16.2747 59.5187 16.2751C58.6768 16.3148 57.8829 16.6684 57.3015 17.2625C56.7202 17.8566 56.3959 18.6458 56.3959 19.4663C56.3959 20.2869 56.7202 21.076 57.3015 21.6702C57.8829 22.2643 58.6768 22.6178 59.5187 22.6576C59.8451 22.6629 60.1688 22.5985 60.467 22.469C60.7651 22.3394 61.0304 22.1478 61.2443 21.9076H61.2905V22.3651C61.2905 23.5876 60.6203 24.2401 59.5418 24.2401C59.1826 24.2319 58.834 24.1198 58.5404 23.9182C58.2468 23.7165 58.0215 23.4343 57.8932 23.1076L56.6375 23.6176C56.8739 24.1774 57.2766 24.6556 57.7941 24.991C58.3116 25.3264 58.9201 25.5037 59.5418 25.5001C61.2289 25.5001 62.6233 24.5326 62.6233 22.1776V16.5001H61.2982V17.0251ZM59.6496 21.4351C59.1527 21.3925 58.6902 21.1701 58.3533 20.812C58.0164 20.4538 57.8296 19.9857 57.8296 19.5001C57.8296 19.0144 58.0164 18.5464 58.3533 18.1882C58.6902 17.83 59.1527 17.6077 59.6496 17.5651C59.896 17.5774 60.1374 17.6376 60.3595 17.7421C60.5816 17.8466 60.78 17.9934 60.943 18.1737C61.1059 18.354 61.2302 18.5643 61.3084 18.7921C61.3866 19.0199 61.4172 19.2606 61.3984 19.5001C61.4194 19.7406 61.3901 19.9828 61.3122 20.212C61.2344 20.4411 61.1096 20.6525 60.9454 20.8334C60.7812 21.0143 60.581 21.1609 60.357 21.2643C60.133 21.3677 59.8897 21.4258 59.6419 21.4351H59.6496ZM78.4313 13.1251H74.9877V22.5001H76.4283V18.9451H78.439C78.8495 18.9738 79.2618 18.9199 79.65 18.7866C80.0382 18.6534 80.3941 18.4437 80.6954 18.1707C80.9967 17.8977 81.237 17.5671 81.4013 17.1997C81.5657 16.8323 81.6505 16.4358 81.6505 16.0351C81.6505 15.6343 81.5657 15.2379 81.4013 14.8705C81.237 14.503 80.9967 14.1725 80.6954 13.8995C80.3941 13.6264 80.0382 13.4168 79.65 13.2835C79.2618 13.1503 78.8495 13.0964 78.439 13.1251H78.4313ZM78.4313 17.6251H76.4206V14.4301H78.4621C78.9003 14.4301 79.3207 14.5996 79.6305 14.9013C79.9404 15.203 80.1145 15.6122 80.1145 16.0388C80.1145 16.4655 79.9404 16.8747 79.6305 17.1764C79.3207 17.4781 78.9003 17.6476 78.4621 17.6476L78.4313 17.6251ZM87.3136 16.2751C86.7892 16.2446 86.267 16.3639 85.8113 16.6184C85.3555 16.8729 84.9861 17.2515 84.7483 17.7076L86.0271 18.2251C86.1532 17.9989 86.3441 17.8132 86.5766 17.6907C86.8092 17.5682 87.0733 17.5141 87.3368 17.5351C87.5196 17.5143 87.7049 17.5292 87.8818 17.5788C88.0587 17.6285 88.2237 17.712 88.3671 17.8244C88.5106 17.9368 88.6296 18.0759 88.7172 18.2335C88.8048 18.3912 88.8593 18.5642 88.8775 18.7426V18.8401C88.4148 18.6016 87.8988 18.4779 87.3753 18.4801C85.9963 18.4801 84.6019 19.2301 84.6019 20.5876C84.6155 20.877 84.6886 21.1609 84.8169 21.4224C84.9451 21.6839 85.1259 21.9177 85.3485 22.1099C85.5712 22.3022 85.8312 22.4491 86.1131 22.5419C86.3951 22.6346 86.6933 22.6714 86.9901 22.6501C87.3529 22.6755 87.716 22.6053 88.0413 22.4469C88.3666 22.2886 88.6421 22.0479 88.839 21.7501H88.8852V22.5001H90.2719V18.8926C90.2719 17.2501 88.9931 16.2976 87.3522 16.2976L87.3136 16.2751ZM87.1365 21.4126C86.6665 21.4126 86.0117 21.1801 86.0117 20.6176C86.0117 19.8676 86.8283 19.6201 87.5525 19.6201C88.0101 19.6091 88.4624 19.7179 88.8621 19.9351C88.8139 20.3411 88.6166 20.7166 88.3066 20.9922C87.9966 21.2678 87.5947 21.4251 87.175 21.4351L87.1365 21.4126ZM95.3255 16.5001L93.6769 20.5651H93.6307L91.9205 16.5001H90.3797L92.945 22.1851L91.4813 25.3426H92.9836L96.9279 16.5001H95.3255ZM82.3756 22.5001H83.8162V13.1251H82.3756V22.5001Z" fill="white"/>
<path d="M36.4829 7.7269C36.496 8.00199 36.4515 8.27681 36.3522 8.53466C36.2529 8.79251 36.1008 9.02803 35.9051 9.2269C35.6866 9.44785 35.4228 9.62149 35.1308 9.7365C34.8388 9.85151 34.5251 9.90531 34.2103 9.8944C33.7327 9.89076 33.2667 9.74997 32.8709 9.48967C32.4751 9.22936 32.167 8.86112 31.9852 8.43109C31.8034 8.00105 31.7561 7.52835 31.849 7.07222C31.942 6.61608 32.1711 6.1968 32.5078 5.8669C32.729 5.64699 32.9943 5.47362 33.2871 5.35751C33.58 5.24141 33.8942 5.18504 34.2103 5.1919C34.536 5.19085 34.8584 5.25465 35.1579 5.3794C35.4366 5.48887 35.6848 5.66107 35.882 5.8819L35.4737 6.2794C35.3199 6.10135 35.1258 5.96055 34.9065 5.86813C34.6872 5.77571 34.4489 5.73421 34.2103 5.7469C33.9697 5.74575 33.7313 5.79192 33.5094 5.88264C33.2876 5.97337 33.0868 6.10677 32.9192 6.27486C32.7516 6.44295 32.6205 6.64225 32.534 6.86084C32.4474 7.07942 32.407 7.31277 32.4153 7.5469C32.4103 7.8965 32.5117 8.23973 32.7068 8.53328C32.9019 8.82683 33.1819 9.05755 33.5115 9.19635C33.8411 9.33514 34.2056 9.37578 34.5589 9.31315C34.9122 9.25051 35.2386 9.0874 35.4968 8.8444C35.7339 8.5943 35.8706 8.26953 35.882 7.9294H34.2103V7.3894H36.4521C36.4726 7.50079 36.4829 7.61373 36.4829 7.7269ZM40.0112 5.8519H37.9312V7.2769H39.8263V7.8169H37.9312V9.2419H40.0112V9.7969H37.3149V5.2969H40.0112V5.8519ZM42.538 9.7969H41.9448V5.8519H40.6506V5.2969H43.863V5.8519H42.538V9.7969ZM46.1279 9.7969V5.2969H46.7211V9.7969H46.1279ZM49.3558 9.7969H48.7626V5.8519H47.4684V5.2969H50.6423V5.8519H49.3558V9.7969ZM56.6589 9.2119C56.2085 9.64791 55.5992 9.89266 54.9641 9.89266C54.3289 9.89266 53.7196 9.64791 53.2693 9.2119C52.8315 8.76079 52.5876 8.16373 52.5876 7.54315C52.5876 6.92257 52.8315 6.32551 53.2693 5.8744C53.4912 5.65671 53.7553 5.48393 54.0462 5.36603C54.337 5.24813 54.649 5.18743 54.9641 5.18743C55.2792 5.18743 55.5911 5.24813 55.882 5.36603C56.1729 5.48393 56.4369 5.65671 56.6589 5.8744C57.0984 6.32465 57.3434 6.92204 57.3434 7.54315C57.3434 8.16427 57.0984 8.76166 56.6589 9.2119ZM53.7084 8.8369C54.0419 9.16024 54.4934 9.34178 54.9641 9.34178C55.4348 9.34178 55.8863 9.16024 56.2198 8.8369C56.5489 8.48367 56.7312 8.02382 56.7312 7.5469C56.7312 7.06999 56.5489 6.61014 56.2198 6.2569C55.8863 5.93356 55.4348 5.75202 54.9641 5.75202C54.4934 5.75202 54.0419 5.93356 53.7084 6.2569C53.3792 6.61014 53.1969 7.06999 53.1969 7.5469C53.1969 8.02382 53.3792 8.48367 53.7084 8.8369ZM58.1765 9.7969V5.2969H58.9007L61.1502 8.7994V5.2969H61.7433V9.7969H61.127L58.7774 6.1294V9.7969H58.1765Z" fill="white"/>
<path fill-rule="evenodd" clip-rule="evenodd" d="M54.9641 5.26243C54.6592 5.26243 54.3573 5.32117 54.0758 5.43527C53.7946 5.54925 53.5393 5.71622 53.3246 5.92658C52.9008 6.36369 52.6647 6.94204 52.6647 7.54315C52.6647 8.14419 52.9007 8.72247 53.3244 9.15955C53.7603 9.58107 54.3497 9.81766 54.9641 9.81766C55.5785 9.81766 56.168 9.58103 56.6038 9.15946C57.0292 8.72324 57.2664 8.14468 57.2664 7.54315C57.2664 6.94155 57.0291 6.36292 56.6036 5.92668C56.3889 5.71627 56.1336 5.54927 55.8524 5.43527C55.5709 5.32117 55.269 5.26243 54.9641 5.26243ZM54.0165 5.29679C54.3168 5.17509 54.6388 5.11243 54.9641 5.11243C55.2893 5.11243 55.6113 5.17509 55.9116 5.29679C56.2119 5.4185 56.4844 5.59685 56.7136 5.82156L56.7148 5.82273C57.1678 6.28691 57.4205 6.90281 57.4205 7.54315C57.4205 8.1835 57.1678 8.79938 56.7147 9.26357L56.7132 9.2651C56.2484 9.71509 55.6196 9.96766 54.9641 9.96766C54.3086 9.96766 53.6797 9.71507 53.2149 9.26508L53.2132 9.26343C52.762 8.7984 52.5106 8.18289 52.5106 7.54315C52.5106 6.90342 52.762 6.28793 53.2133 5.8229L53.2146 5.82155C53.4437 5.59683 53.7163 5.4185 54.0165 5.29679ZM34.2086 5.26688C33.903 5.26025 33.5993 5.31474 33.3162 5.42698C33.0331 5.53921 32.7767 5.7068 32.5628 5.91938L32.5624 5.91976C32.2365 6.23919 32.0146 6.64516 31.9246 7.08681C31.8346 7.52847 31.8805 7.98616 32.0565 8.40254C32.2325 8.81893 32.5308 9.17547 32.9141 9.42752C33.2973 9.67956 33.7484 9.81588 34.2109 9.8194L34.213 9.81942C34.517 9.82996 34.8199 9.77803 35.1019 9.66697C35.3838 9.55592 35.6386 9.38828 35.8495 9.17496C36.0379 8.98344 36.1844 8.75664 36.2801 8.50833C36.3757 8.25999 36.4185 7.99532 36.4059 7.73037L36.4829 7.7269L36.4059 7.72687C36.4059 7.63902 36.3994 7.5513 36.3865 7.4644H34.2873V7.8544H35.9616L35.959 7.93185C35.947 8.28997 35.803 8.63193 35.5534 8.89526L35.5504 8.89842C35.2813 9.15171 34.941 9.32164 34.5727 9.38693C34.2044 9.45222 33.8245 9.40986 33.4809 9.26518C33.1374 9.12051 32.8455 8.88001 32.6421 8.57402C32.4391 8.26854 32.3334 7.91145 32.3383 7.54767C32.3299 7.30406 32.372 7.06129 32.4621 6.83385C32.5524 6.60585 32.6891 6.39795 32.8639 6.22262C33.0388 6.04728 33.2482 5.90813 33.4796 5.8135C33.7103 5.71915 33.9582 5.671 34.2084 5.67189C34.4581 5.65895 34.7076 5.70256 34.9371 5.7993C35.1416 5.88552 35.3254 6.01183 35.4771 6.17005L35.7757 5.8793C35.5949 5.6922 35.3743 5.54527 35.129 5.44896L35.1275 5.44837C34.8378 5.32764 34.5257 5.26588 34.2106 5.2669L34.2086 5.26688ZM36.5599 7.72518C36.5732 8.00984 36.5271 8.29417 36.4243 8.56099C36.3214 8.82836 36.1636 9.07257 35.9607 9.27878C35.7348 9.50732 35.4617 9.68706 35.1597 9.80602C34.8579 9.92486 34.5339 9.98052 34.2086 9.96939C33.7162 9.96543 33.2359 9.82019 32.8278 9.55181C32.4194 9.28324 32.1015 8.90332 31.914 8.45963C31.7264 8.01595 31.6775 7.52824 31.7735 7.05762C31.8693 6.58709 32.1057 6.15457 32.4529 5.81423C32.6815 5.58708 32.9556 5.40799 33.2581 5.28805C33.5604 5.1682 33.8847 5.10995 34.211 5.1169C34.5466 5.11594 34.8789 5.1817 35.1874 5.31014C35.4772 5.42405 35.7351 5.60312 35.9401 5.83269L35.9873 5.88548L35.4688 6.39026L35.4147 6.32767C35.2687 6.15851 35.0842 6.02475 34.8759 5.93696C34.6676 5.84916 34.4412 5.80973 34.2145 5.82179L34.2099 5.82203C33.9797 5.82094 33.7515 5.86498 33.5393 5.95179C33.327 6.0386 33.1349 6.16626 32.9745 6.3271C32.8141 6.48794 32.6887 6.67866 32.6058 6.88782C32.523 7.09698 32.4844 7.32028 32.4923 7.54432L32.4925 7.54796C32.4876 7.88275 32.5847 8.21143 32.7715 8.49254C32.9583 8.77365 33.2264 8.9946 33.5421 9.12751C33.8578 9.26042 34.2068 9.29934 34.5451 9.23936C34.8828 9.17951 35.1947 9.02385 35.4417 8.79197C35.6472 8.5744 35.7728 8.29742 35.8001 8.0044H34.1333V7.3144H36.5165L36.5279 7.37615C36.5492 7.49134 36.5599 7.60814 36.5599 7.72518ZM37.2379 5.2219H40.0882V5.9269H38.0082V7.2019H39.9033V7.8919H38.0082V9.1669H40.0882V9.8719H37.2379V5.2219ZM37.3919 5.3719V9.7219H39.9342V9.3169H37.8541V7.7419H39.7493V7.3519H37.8541V5.7769H39.9342V5.3719H37.3919ZM40.5736 5.2219H43.9401V5.9269H42.615V9.8719H41.8678V5.9269H40.5736V5.2219ZM40.7276 5.3719V5.7769H42.0219V9.7219H42.461V5.7769H43.786V5.3719H40.7276ZM46.0509 5.2219H46.7981V9.8719H46.0509V5.2219ZM46.205 5.3719V9.7219H46.6441V5.3719H46.205ZM47.3913 5.2219H50.7193V5.9269H49.4328V9.8719H48.6856V5.9269H47.3913V5.2219ZM47.5454 5.3719V5.7769H48.8396V9.7219H49.2787V5.7769H50.5653V5.3719H47.5454ZM58.0995 5.2219H58.9434L61.0731 8.53799V5.2219H61.8204V9.8719H61.0843L58.8544 6.39137V9.8719H58.0995V5.2219ZM58.2536 5.3719V9.7219H58.7004V5.86744L61.1698 9.7219H61.6663V5.3719H61.2272V9.06082L58.858 5.3719H58.2536ZM53.654 6.20376C54.002 5.86642 54.473 5.67702 54.9641 5.67702C55.4551 5.67702 55.9262 5.86642 56.2741 6.20376L56.2769 6.20645C56.6189 6.57348 56.8083 7.05136 56.8083 7.5469C56.8083 8.04245 56.6188 8.52026 56.2768 8.88729L56.2742 8.89011C55.9263 9.22745 55.4551 9.41678 54.9641 9.41678C54.473 9.41678 54.002 9.22739 53.654 8.89005L53.7084 8.8369L53.6513 8.88729C53.3093 8.52026 53.1199 8.04245 53.1199 7.5469C53.1199 7.05136 53.3093 6.57355 53.6513 6.20651L53.654 6.20376ZM53.7641 8.78511C54.0831 9.09361 54.5144 9.26678 54.9641 9.26678C55.4137 9.26678 55.8451 9.09361 56.164 8.78511C56.4795 8.44586 56.6542 8.00456 56.6542 7.5469C56.6542 7.08925 56.4795 6.64795 56.164 6.3087C55.8451 6.0002 55.4137 5.82702 54.9641 5.82702C54.5144 5.82702 54.0831 6.0002 53.7641 6.3087C53.4487 6.64795 53.274 7.08925 53.274 7.5469C53.274 8.00456 53.4487 8.44586 53.7641 8.78511Z" fill="white"/>
<path d="M8.04256 5.65504C7.79146 5.94837 7.66473 6.32389 7.68818 6.70504V23.295C7.66473 23.6762 7.79146 24.0517 8.04256 24.345L8.09648 24.3975L17.6414 15.1125V14.895L8.09648 5.60254L8.04256 5.65504Z" fill="url(#paint0_linear_46_118)"/>
<path d="M20.7999 18.21L17.6414 15.1125V14.895L20.7999 11.79L20.8692 11.8275L24.6517 13.92C25.7302 14.5125 25.7302 15.4875 24.6517 16.0875L20.8846 18.1725L20.7999 18.21Z" fill="url(#paint1_linear_46_118)"/>
<path d="M20.8924 18.165L17.6414 15L8.0426 24.345C8.26244 24.5331 8.54287 24.6406 8.83545 24.6488C9.12803 24.657 9.41436 24.5655 9.64497 24.39L20.9001 18.165" fill="url(#paint2_linear_46_118)"/>
<path d="M20.8923 11.835L9.63716 5.61004C9.40655 5.43455 9.12022 5.343 8.82764 5.35122C8.53506 5.35943 8.25462 5.4669 8.03479 5.65504L17.6413 15L20.8923 11.835Z" fill="url(#paint3_linear_46_118)"/>
<path opacity="0.2" d="M20.7999 18.0975L9.63727 24.285C9.41486 24.4469 9.1446 24.5344 8.8669 24.5344C8.58919 24.5344 8.31894 24.4469 8.09653 24.285L8.0426 24.3375L8.09653 24.39C8.31844 24.5531 8.58888 24.6413 8.8669 24.6413C9.14492 24.6413 9.41536 24.5531 9.63727 24.39L20.8924 18.165L20.7999 18.0975Z" fill="black"/>
<path opacity="0.12" d="M8.04256 24.24C7.79146 23.9467 7.66473 23.5711 7.68818 23.19V23.3025C7.66473 23.6837 7.79146 24.0592 8.04256 24.3525L8.09648 24.3L8.04256 24.24ZM24.6517 15.975L20.7999 18.0975L20.8692 18.165L24.6517 16.08C24.8664 15.9818 25.0506 15.8303 25.1859 15.6407C25.3211 15.4511 25.4026 15.2301 25.4221 15C25.3788 15.209 25.2868 15.4056 25.1533 15.5746C25.0197 15.7437 24.8481 15.8806 24.6517 15.975Z" fill="black"/>
<path opacity="0.25" d="M9.63704 5.71471L24.6516 14.0247C24.848 14.1191 25.0195 14.2561 25.1531 14.4251C25.2866 14.5941 25.3786 14.7907 25.4219 14.9997C25.4024 14.7696 25.3209 14.5486 25.1857 14.359C25.0504 14.1694 24.8662 14.0179 24.6516 13.9197L9.63704 5.60971C8.55852 5.01721 7.6803 5.51221 7.6803 6.71221V6.82471C7.70341 5.61721 8.56622 5.12221 9.63704 5.71471V5.71471Z" fill="white"/>
<defs>
<linearGradient id="paint0_linear_46_118" x1="16.794" y1="6.53254" x2="4.21348" y2="19.4547" gradientUnits="userSpaceOnUse">
<stop stop-color="#00A0FF"/>
<stop offset="0.01" stop-color="#00A1FF"/>
<stop offset="0.26" stop-color="#00BEFF"/>
<stop offset="0.51" stop-color="#00D2FF"/>
<stop offset="0.76" stop-color="#00DFFF"/>
<stop offset="1" stop-color="#00E3FF"/>
</linearGradient>
<linearGradient id="paint1_linear_46_118" x1="26.0615" y1="15" x2="7.42625" y2="15" gradientUnits="userSpaceOnUse">
<stop stop-color="#FFE000"/>
<stop offset="0.41" stop-color="#FFBD00"/>
<stop offset="0.78" stop-color="#FFA500"/>
<stop offset="1" stop-color="#FF9C00"/>
</linearGradient>
<linearGradient id="paint2_linear_46_118" x1="19.1282" y1="16.725" x2="2.06416" y2="34.2448" gradientUnits="userSpaceOnUse">
<stop stop-color="#FF3A44"/>
<stop offset="1" stop-color="#C31162"/>
</linearGradient>
<linearGradient id="paint3_linear_46_118" x1="5.62353" y1="0.135036" x2="13.2408" y2="7.95919" gradientUnits="userSpaceOnUse">
<stop stop-color="#32A071"/>
<stop offset="0.07" stop-color="#2DA771"/>
<stop offset="0.48" stop-color="#15CF74"/>
<stop offset="0.8" stop-color="#06E775"/>
<stop offset="1" stop-color="#00F076"/>
</linearGradient>
</defs>
</svg>
