<svg width="271" height="503" viewBox="0 0 271 503" fill="none" xmlns="http://www.w3.org/2000/svg">
<path fill-rule="evenodd" clip-rule="evenodd" d="M34.0654 46L180.591 46C197.176 46 210.621 59.4299 210.621 75.9964V140.732C211.224 140.945 211.656 141.52 211.656 142.195V185.121C211.656 185.797 211.224 186.371 210.621 186.584L210.621 448.365C210.621 464.932 197.176 478.362 180.591 478.362H34.0654C17.4804 478.362 4.03551 464.932 4.03551 448.365L4.03551 193.308C3.43223 193.095 3 192.52 3 191.844L3 167.02C3 166.344 3.43223 165.77 4.03551 165.557L4.03551 156.071C3.43223 155.858 3 155.283 3 154.608L3 129.783C3 129.107 3.43223 128.533 4.03551 128.32L4.03551 115.731C3.43223 115.518 3 114.943 3 114.268L3 101.338C3 100.663 3.43223 100.088 4.03551 99.8749L4.03551 75.9964C4.03551 59.4299 17.4804 46 34.0654 46Z" fill="#E4E9CF" stroke="black" stroke-width="6"/>
<path fill-rule="evenodd" clip-rule="evenodd" d="M63.6419 3.00012H231.753C250.781 3.00012 266.207 18.4084 266.207 37.4155V111.688C266.899 111.932 267.395 112.592 267.395 113.367V162.616C267.395 163.391 266.899 164.051 266.207 164.295V464.641C266.207 483.648 250.781 499.056 231.753 499.056H63.6419C44.6136 499.056 29.1881 483.648 29.1881 464.641V172.009C28.4959 171.764 28 171.105 28 170.33V141.848C28 141.073 28.4959 140.414 29.1881 140.169V129.286C28.4959 129.042 28 128.382 28 127.607V99.1258C28 98.3507 28.4959 97.6913 29.1881 97.447V83.0035C28.4959 82.7592 28 82.0998 28 81.3247V66.5002C28 65.7251 28.4959 65.0561 29.1881 64.8117V37.4155C29.1881 18.4084 44.6136 3.00012 63.6419 3.00012Z" fill="#F3FBF8" stroke="black" stroke-width="6"/>
</svg>
