<svg width="56" height="56" viewBox="0 0 56 56" fill="none" xmlns="http://www.w3.org/2000/svg">
<circle cx="28" cy="28" r="28" fill="#F3FBF8"/>
<path d="M34.4722 20H35.9217C37.1292 20 38.1392 19.1395 38.3712 18H36.9217C35.7147 18 34.7047 18.8605 34.4722 20Z" fill="#09A66D"/>
<path d="M23 15.5C23.0495 15.5 23.0975 15.506 23.147 15.5075L23.498 11.9975C23.5 11.703 23.297 11.5 23.0475 11.5H22.953C22.703 11.5 22.5 11.703 22.5 11.9525L22.8535 15.5075C22.9025 15.506 22.9505 15.5 23 15.5Z" fill="#09A66D"/>
<path d="M19 26C19 25.8295 19.0175 25.663 19.045 25.5H18V25.8425C18.3745 26.021 18.713 26.262 19 26.555V26Z" fill="#09A66D"/>
<path d="M18.5951 13.7781L20.3056 16.2961C20.4396 16.2096 20.5781 16.1296 20.7206 16.0561L19.6921 13.2276C19.6846 13.2076 19.6771 13.1891 19.6676 13.1711C19.5971 13.0301 19.4851 12.9326 19.3456 12.8866C19.2061 12.8401 19.0576 12.8511 18.9271 12.9166L18.8021 12.9791C18.5316 13.1141 18.4216 13.4441 18.5571 13.7146C18.5681 13.7346 18.5811 13.7571 18.5951 13.7781Z" fill="#09A66D"/>
<path d="M20.691 24.5H26.26L26.916 21.352C26.9715 21.084 27 20.8095 27 20.536C27 18.2945 25.2055 16.5 23 16.5C20.7945 16.5 19 18.2945 19 20.5C19 20.8095 19.0285 21.084 19.084 21.352L19.662 24.125C20.212 23.44 21.055 23 22 23V24C21.4975 24 21.043 24.1925 20.691 24.5ZM24.5 18.5H25.5V19.5H24.5V18.5ZM24.5 20.5H25.5V21.5H24.5V20.5ZM24.5 22.5H25.5V23.5H24.5V22.5Z" fill="#09A66D"/>
<path d="M17.5002 28.5H18.9497C18.7172 27.3605 17.7077 26.5 16.5002 26.5H15.0507C15.2827 27.6395 16.2927 28.5 17.5002 28.5Z" fill="#09A66D"/>
<path d="M27.4055 13.7766C27.4185 13.7566 27.432 13.7346 27.443 13.7121C27.5775 13.4436 27.4675 13.1136 27.197 12.9786L27.072 12.9161C26.941 12.8511 26.7935 12.8396 26.6535 12.8861C26.5145 12.9326 26.402 13.0301 26.3365 13.1611C26.3225 13.1891 26.3145 13.2076 26.3075 13.2266L25.279 16.0551C25.4215 16.1286 25.56 16.2086 25.6945 16.2951L27.4055 13.7766Z" fill="#09A66D"/>
<path d="M26.4921 34.5H40.5001V31.5H25.8261C26.2676 32.4285 26.4916 33.449 26.4921 34.5ZM38.5001 32.5H39.5001V33.5H38.5001V32.5Z" fill="#09A66D"/>
<path d="M25.2316 38.5H39.0001C39.8271 38.5 40.5001 37.827 40.5001 37V35.5H26.4281C26.2686 36.6015 25.8476 37.623 25.2316 38.5ZM38.5001 36.5H39.5001V37.5H38.5001V36.5Z" fill="#09A66D"/>
<path d="M20.071 25.5C20.029 25.661 20 25.8265 20 26V26.5H40.5H41H42.5V25.5H20.071Z" fill="#09A66D"/>
<path d="M20 28.9335C20.1005 28.909 20.201 28.8835 20.2925 28.844C21.8175 28.1915 23.5925 28.5835 24.7055 29.821C24.8995 30.0365 25.0735 30.2655 25.237 30.4995H40.5V27.4995H20V28.9335ZM38.5 28.5H39.5V29.5H38.5V28.5Z" fill="#09A66D"/>
<path d="M23.9625 30.4899C23.1485 29.5849 21.801 29.2854 20.686 29.7634C20.4715 29.8549 20.2395 29.9179 20 29.9564V30.8979C20.4965 30.7129 20.968 30.3234 21.147 30.1454L21.8535 30.8534C21.7365 30.9709 20.6735 31.9999 19.5 31.9999C18.3265 31.9999 17.2635 30.9709 17.1465 30.8534L17.853 30.1454C18.032 30.3229 18.5035 30.7124 19 30.8979V29.4999H17.5C17.3305 29.4999 17.1655 29.4839 17.0025 29.4604C16.3015 29.5104 15.5605 29.9024 15.0145 30.5154C14.038 31.6139 13.5 33.0284 13.5 34.4999C13.5 36.1464 14.154 37.6819 15.3405 38.8239C16.527 39.9654 18.08 40.5549 19.739 40.4954C22.8295 40.3759 25.3575 37.8619 25.4945 34.7724C25.564 33.1869 25.02 31.6659 23.9625 30.4899ZM19.5 39.4999C16.743 39.4999 14.5 37.2569 14.5 34.4999H15.5C15.5 36.7054 17.2945 38.4999 19.5 38.4999V39.4999Z" fill="#09A66D"/>
<path d="M38.3854 24.5C38.1464 23.571 37.6899 22.7115 37.0409 21.99C36.2264 21.085 34.8789 20.7865 33.7639 21.2635C33.6789 21.3 33.5899 21.3305 33.4999 21.359V17C33.4999 16.173 34.1729 15.5 34.9999 15.5H35.4999V14.5H34.9999C33.6214 14.5 32.4999 15.6215 32.4999 17V21.359C32.4099 21.3305 32.3209 21.3 32.2359 21.2635C31.1214 20.7865 29.7734 21.085 28.9589 21.99C28.3099 22.7115 27.8534 23.5705 27.6144 24.5H32.9999H38.3854ZM30.7534 22.069C30.7609 22.073 31.5179 22.5 32.9999 22.5C34.4819 22.5 35.2389 22.073 35.2464 22.069L35.7569 22.9285C35.7184 22.952 34.7844 23.5 32.9999 23.5C31.2154 23.5 30.2814 22.952 30.2424 22.9285L30.7534 22.069Z" fill="#09A66D"/>
</svg>
