<svg width="948" height="536" viewBox="0 0 948 536" fill="none" xmlns="http://www.w3.org/2000/svg">
<path d="M354.604 110.22C343.744 70.3989 292.164 37.8128 257.442 21.3865C215.151 1.37889 155.864 -7.44821 113.087 16.1429C83.7765 32.3077 57.5816 57.1649 36.4373 82.7683C20.6019 101.943 -3.09143 133.324 2.97037 161.115C10.7728 196.886 60.3554 211.29 88.257 220.646C163.514 245.882 242.082 260.825 318.053 283.878C351.603 294.059 403.085 301.464 417.683 339.245C422.268 351.112 428.704 373.534 424.931 386.284C416.405 415.097 362.018 427.841 341.187 434.865C288.931 452.486 235.166 466.374 180.33 472.959C168.613 474.366 156.803 474.937 145.012 475.426C135.046 475.839 110.638 479.872 115.401 471.108C125.685 452.184 180.459 434.414 197.294 426.691C250.514 402.276 306.061 383.811 362.316 367.777C409.126 354.435 456.397 342.629 504.82 336.932C529.033 334.083 561.482 329.958 585.634 338.166C618.751 349.419 616.66 401.803 602.29 426.074C564.365 490.131 486.393 522.935 415.369 531.256C380.144 535.383 342.219 534.684 307.566 526.629C303.844 525.764 270.282 521.978 280.885 504.112C293.912 482.161 352.497 452.752 364.475 446.278C439.77 405.577 518.471 371.203 597.355 338.166C638.083 321.109 679.46 303.452 721.969 291.127C780.832 274.06 855.426 290.051 903.03 328.449C934.372 353.731 956.17 406.064 941.124 445.969C937.221 456.319 929.418 465.556 918.144 465.556" stroke="#ECFFDC" stroke-width="3" stroke-linecap="round"/>
</svg>
