<svg width="56" height="56" viewBox="0 0 56 56" fill="none" xmlns="http://www.w3.org/2000/svg">
<circle cx="28" cy="28" r="28" fill="#F3FBF8"/>
<path d="M24.1557 35.7151H34.5469C34.8706 35.7151 35.1328 35.4527 35.1328 35.1291C35.1328 34.8055 34.8706 34.5432 34.5469 34.5432H24.1557C23.8321 34.5432 23.5698 34.8055 23.5698 35.1291C23.5698 35.4527 23.8321 35.7151 24.1557 35.7151ZM25.9918 22.2727H32.9482C33.4787 22.2727 33.9386 21.9316 34.0927 21.424L35.5527 16.6135C35.6639 16.2473 35.5968 15.861 35.3689 15.5537C35.141 15.2463 34.7908 15.0701 34.4082 15.0701H33.8885L32.8264 12.4152C32.5824 11.804 31.9993 11.4091 31.3411 11.4091H27.5989C26.9407 11.4091 26.3576 11.804 26.1135 12.4149L25.0514 15.07H24.5318C24.1491 15.07 23.7989 15.2462 23.571 15.5537C23.343 15.8611 23.276 16.2473 23.3871 16.6135L24.8472 21.424C25.0013 21.9316 25.4612 22.2727 25.9918 22.2727V22.2727ZM24.5123 16.2516C24.53 16.2277 27.6993 16.2496 27.722 16.2419C28.0456 16.2419 28.3079 15.9795 28.3079 15.6559C28.3079 15.3323 28.0456 15.07 27.722 15.07H26.3135L27.2015 12.85C27.2668 12.6866 27.4228 12.5809 27.5989 12.5809H31.3411C31.5171 12.5809 31.6731 12.6866 31.7384 12.8502L32.6264 15.07H30.4563C30.1326 15.07 29.8703 15.3323 29.8703 15.6559C29.8703 15.9795 30.1326 16.2419 30.4563 16.2419C30.476 16.2419 34.4126 16.2314 34.4276 16.2516C34.445 16.2752 32.9713 21.059 32.9713 21.0837C32.9713 21.1357 25.9717 21.0939 25.9685 21.0837C25.9611 21.0591 24.4949 16.2751 24.5123 16.2516V16.2516ZM24.1557 41.5604C23.8321 41.5604 23.5698 41.8227 23.5698 42.1463C23.5698 42.4699 23.8321 42.7323 24.1557 42.7323H34.5469C34.8706 42.7323 35.1328 42.4699 35.1328 42.1463C35.1328 41.8227 34.8706 41.5604 34.5469 41.5604H24.1557ZM39.8203 39.8026C39.8203 39.479 39.5581 39.2166 39.2344 39.2166H24.1557C23.8321 39.2166 23.5698 39.479 23.5698 39.8026C23.5698 40.1262 23.8321 40.3885 24.1557 40.3885H39.2344C39.5581 40.3885 39.8203 40.1262 39.8203 39.8026ZM42.75 33.5423C43.0737 33.5423 43.336 33.28 43.336 32.9564V10.8231C43.336 9.20765 42.0218 7.89343 40.4063 7.89343H18.5336C16.9182 7.89343 15.6039 9.20765 15.6039 10.8231V44.9637C15.6039 46.5792 16.9182 47.8934 18.5336 47.8934H40.4064C42.0218 47.8934 43.3361 46.5792 43.3361 44.9637V35.6908C43.3361 35.3672 43.0738 35.1048 42.7501 35.1048C42.4264 35.1048 42.1642 35.3672 42.1642 35.6908V44.9637C42.1642 45.933 41.3756 46.7216 40.4064 46.7216H18.5336C17.5643 46.7216 16.7758 45.933 16.7758 44.9637V10.8231C16.7758 9.85382 17.5643 9.06531 18.5336 9.06531H40.4064C41.3756 9.06531 42.1642 9.85382 42.1642 10.8231V32.9564C42.1641 33.28 42.4264 33.5423 42.75 33.5423V33.5423ZM21.8393 36.1644C21.5508 36.168 21.2482 36.1709 20.9709 36.1723C21.1679 35.9048 21.4171 35.5597 21.7278 35.1157C22.0003 34.7264 22.1932 34.374 22.2434 34.0078C22.2516 33.9478 22.2674 33.8401 22.2674 33.7828C22.2674 32.9098 21.5571 32.1995 20.6841 32.1995C19.9293 32.1995 19.2759 32.7366 19.1305 33.4766C19.0682 33.7941 19.275 34.1021 19.5925 34.1644C19.9101 34.2268 20.2181 34.02 20.2804 33.7024C20.3181 33.5105 20.4878 33.3714 20.6841 33.3714C20.9011 33.3714 21.0795 33.5403 21.0945 33.7536C21.1093 33.9641 21.0019 34.1092 20.7678 34.4437C20.1521 35.3234 19.7849 35.8042 19.5876 36.0625C19.2432 36.5135 19.0785 37.1013 19.6752 37.3002C19.7521 37.3258 21.2989 37.3433 21.854 37.3362C22.1776 37.3322 22.4366 37.0666 22.4325 36.743C22.4285 36.4194 22.1601 36.1582 21.8393 36.1644V36.1644ZM39.2344 32.1994H24.1557C23.8321 32.1994 23.5698 32.4618 23.5698 32.7854C23.5698 33.109 23.8321 33.3713 24.1557 33.3713H39.2344C39.5581 33.3713 39.8203 33.109 39.8203 32.7854C39.8203 32.4618 39.5581 32.1994 39.2344 32.1994ZM20.776 39.2166C20.0212 39.2166 19.3678 39.7537 19.2225 40.4937C19.1601 40.8112 19.3669 41.1192 19.6845 41.1816C20.0018 41.2438 20.31 41.0371 20.3724 40.7195C20.41 40.5277 20.5798 40.3885 20.776 40.3885C21.0029 40.3885 21.1875 40.573 21.1875 40.7999C21.1875 41.0268 21.0029 41.2113 20.776 41.2113C20.4525 41.2113 20.1901 41.4737 20.1901 41.7973C20.1901 42.1209 20.4525 42.3832 20.776 42.3832C21.0029 42.3832 21.1875 42.5677 21.1875 42.7946C21.1875 43.0215 21.0029 43.206 20.776 43.206C20.5719 43.206 20.3968 43.0541 20.3686 42.8524C20.366 42.8335 20.3646 42.8141 20.3646 42.7946C20.3646 42.471 20.1023 42.2087 19.7787 42.2087C19.4551 42.2087 19.1928 42.471 19.1928 42.7946C19.1928 43.6552 19.9069 44.3779 20.776 44.3779C21.6491 44.3779 22.3593 43.6677 22.3593 42.7946C22.3593 42.4168 22.2259 42.0698 22.0042 41.7973C22.2259 41.5248 22.3593 41.1777 22.3593 40.7999C22.3593 39.9269 21.6491 39.2166 20.776 39.2166ZM20.776 30.2823C21.0996 30.2823 21.362 30.02 21.362 29.6964V25.7987C21.362 25.4752 21.0996 25.2128 20.776 25.2128H19.9429C19.6193 25.2128 19.357 25.4752 19.357 25.7987C19.357 26.1223 19.6193 26.3847 19.9429 26.3847H20.1901V29.6964C20.1901 30.02 20.4525 30.2823 20.776 30.2823ZM24.1557 28.7284H34.5469C34.8706 28.7284 35.1328 28.4661 35.1328 28.1425C35.1328 27.8189 34.8706 27.5566 34.5469 27.5566H24.1557C23.8321 27.5566 23.5698 27.8189 23.5698 28.1425C23.5698 28.4661 23.8321 28.7284 24.1557 28.7284ZM39.2344 25.2128H24.1557C23.8321 25.2128 23.5698 25.4752 23.5698 25.7987C23.5698 26.1223 23.8321 26.3847 24.1557 26.3847H39.2344C39.5581 26.3847 39.8203 26.1223 39.8203 25.7987C39.8203 25.4752 39.5581 25.2128 39.2344 25.2128Z" fill="#09A66D"/>
</svg>
