<svg width="386" height="599" viewBox="0 0 386 599" fill="none" xmlns="http://www.w3.org/2000/svg">
<path d="M203.9 555.621C174.799 569.043 143.679 577.371 111.893 580.307C108.68 580.603 104.5 577.919 104.5 572.367C104.5 567.779 108.535 562.366 115.659 561.558C143.489 558.402 170.701 550.818 196.249 539.034C230.817 523.091 261.515 499.839 286.227 470.884C310.939 441.928 329.077 407.957 339.39 371.313C349.703 334.67 351.946 296.225 345.963 258.631C339.981 221.037 325.915 185.187 304.737 153.555C283.559 121.923 255.773 95.2597 223.293 75.4053C190.814 55.5508 154.414 42.9771 116.605 38.5511C88.6613 35.28 60.4388 36.5171 33.0045 42.1557C25.9814 43.5992 20.4654 39.7054 19.0413 35.3444C17.3181 30.0671 20.4583 26.2173 23.6043 25.5022C54.7315 18.4267 86.8993 16.6831 118.729 20.4091C159.162 25.1421 198.087 38.5884 232.82 59.8205C267.553 81.0527 297.268 109.566 319.916 143.393C342.563 177.22 357.604 215.557 364.002 255.76C370.4 295.963 368.002 337.075 356.973 376.262C345.945 415.448 326.548 451.776 300.121 482.741C273.694 513.706 240.866 538.571 203.9 555.621Z" stroke="url(#paint0_linear_51_54)" stroke-width="37"/>
<defs>
<linearGradient id="paint0_linear_51_54" x1="109.013" y1="21.3737" x2="93.6364" y2="588.285" gradientUnits="userSpaceOnUse">
<stop stop-color="white" stop-opacity="0"/>
<stop offset="1" stop-color="#09A66D"/>
</linearGradient>
</defs>
</svg>
