<svg width="56" height="56" viewBox="0 0 56 56" fill="none" xmlns="http://www.w3.org/2000/svg">
<circle cx="28" cy="28" r="28" fill="#F3FBF8"/>
<path d="M46.3468 16.2352H39.5636C38.3931 16.2352 37.4407 17.188 37.4407 18.3592V26.1666H34.9036C35.0446 25.654 35.0968 25.0494 35.0625 24.3458V24.3457C35.0075 21.3723 34.4679 18.8664 33.4588 16.8975C32.6752 15.3688 31.7607 14.4523 30.9761 13.9044C31.8971 12.9575 32.4296 11.6104 32.4296 10.0567C32.4296 7.26132 30.1996 4.98718 27.4588 4.98718C24.7179 4.98718 22.488 7.26132 22.488 10.0567C22.488 10.3804 22.7504 10.6427 23.0739 10.6427H23.4721C23.4354 10.8637 23.4159 11.0891 23.4159 11.3179C23.4159 13.2879 24.8236 14.9344 26.6846 15.3034C26.4896 16.0277 26.3926 16.8819 26.393 17.8522L24.9316 19.1091L21.3757 19.3967L17.2739 18.0408C16.898 17.9158 16.4719 17.7745 16.1022 18.0411C15.7379 18.304 15.7379 18.7642 15.7379 18.9154V21.965C15.7379 22.2887 16.0003 22.5509 16.3239 22.5509H17.0214L15.9515 26.2481C15.8616 26.5589 16.0407 26.8839 16.3515 26.9738C16.6625 27.0642 16.9873 26.8847 17.0773 26.5739L18.2415 22.5509H19.9073C17.8354 28.8691 19.0176 33.0864 20.8347 37.3544H19.7814L15.3945 32.4493L16.3221 29.2446C16.4121 28.9337 16.2331 28.6088 15.9222 28.5189C15.6114 28.429 15.2864 28.608 15.1964 28.9188L14.3092 31.9842C11.565 31.9384 9.11027 33.8305 8.48473 36.5526C8.41231 36.8679 8.6091 37.1823 8.92434 37.2548L9.75613 37.4462C9.54363 39.6534 10.9971 41.7358 13.2139 42.246C13.5505 42.3236 13.89 42.3619 14.2272 42.3619C15.0588 42.3619 15.8757 42.1287 16.5983 41.6759C17.4464 41.1444 18.0782 40.3632 18.4202 39.4399L19.0765 39.5909C19.2721 39.6362 19.4575 39.6591 19.6429 39.5593C19.8153 39.4665 19.9299 39.2989 19.9729 39.1098C20.0141 38.918 20.0455 38.723 20.0673 38.5263H32.3218C32.7137 40.9628 34.7868 42.7994 37.2626 42.7994C39.7385 42.7994 41.8116 40.9628 42.2035 38.5263H42.6507C42.6507 38.5263 42.7394 38.5273 42.7596 38.5273C42.9272 38.5273 43.1693 38.5087 43.368 38.3066C43.4675 38.2054 43.5842 38.0244 43.5752 37.7368C43.5587 37.1866 43.4761 36.6549 43.3352 36.1496C43.8019 33.3162 43.3529 31.5905 42.6871 30.2399C43.108 29.9641 43.3871 29.4887 43.3871 28.9487V27.3384H46.3467C47.5172 27.3384 48.4696 26.3855 48.4696 25.2143V18.3591C48.4697 17.188 47.5175 16.2352 46.3468 16.2352V16.2352ZM15.9761 40.683C15.226 41.1531 14.3385 41.3026 13.4769 41.1042H13.4768C11.8911 40.7392 10.8331 39.2851 10.9102 37.7127L17.2659 39.1755C17.0029 39.7947 16.558 40.3184 15.9761 40.683V40.683ZM18.9079 38.3498L9.79348 36.2524C10.4968 34.3263 12.3896 33.0513 14.4586 33.161L18.9236 38.1533C18.9197 38.2191 18.9145 38.2846 18.9079 38.3498ZM27.7583 28.1392C27.5882 28.5878 27.5882 29.1409 27.5882 29.9064V32.1175H25.4427V29.0841C25.4427 25.6545 27.3144 25.0434 28.1544 24.9425H33.8989C33.8757 25.7209 33.7001 26.2741 33.3667 26.6253C32.9781 27.0345 32.3132 27.2339 31.3338 27.2348L29.2306 27.237C28.4806 27.2371 27.9853 27.5405 27.7583 28.1392V28.1392ZM27.5882 33.2893V34.6884C27.5829 34.6884 27.5775 34.6884 27.5718 34.6884H23.4099C23.4567 34.2544 23.5918 33.9187 23.8138 33.6863C24.1439 33.3409 24.6089 33.2893 24.8568 33.2893H27.5882ZM33.873 23.7707H28.5443C28.3304 23.0973 28.1396 22.36 27.9827 21.6022L29.6028 20.5506C30.4871 19.9763 30.9472 19.1648 30.865 18.3241C30.7922 17.5789 30.2856 16.9132 29.5743 16.6283C28.9248 16.3681 28.2257 16.4498 27.6078 16.8449C27.6587 16.2844 27.7536 15.7841 27.8907 15.3594C28.1405 15.3337 28.3886 15.2848 28.6321 15.2132C29.128 15.098 29.5862 14.9145 29.9999 14.6712C31.1284 15.3454 33.6104 17.5323 33.873 23.7707V23.7707ZM23.7028 9.47085C23.9791 7.59867 25.5582 6.15914 27.4588 6.15914C29.5535 6.15914 31.2577 7.90765 31.2577 10.0568C31.2577 11.8048 30.4195 13.2136 29.0679 13.8336V10.7505C29.0679 10.2167 28.8636 9.56187 27.8907 9.47328C27.873 9.47164 27.8553 9.47085 27.8375 9.47085H23.7028ZM24.5879 11.318C24.5879 11.0867 24.6142 10.8609 24.666 10.6427H27.8088C27.845 10.6466 27.8714 10.6509 27.8903 10.6547C27.8933 10.6764 27.896 10.7077 27.896 10.7505V14.1784C27.7564 14.1989 27.6159 14.2093 27.4755 14.2094C27.4742 14.2094 27.4729 14.2094 27.4716 14.2094C25.8813 14.2079 24.5879 12.9114 24.5879 11.318ZM23.8282 20.3742L25.2161 20.2619C25.3397 20.252 25.457 20.203 25.5511 20.1222L28.0558 17.9679L28.0562 17.9675C28.2984 17.7588 28.5569 17.6518 28.8086 17.6518C28.9207 17.6518 29.0314 17.673 29.1386 17.716C29.4482 17.84 29.6681 18.1234 29.6989 18.438C29.7375 18.8338 29.4768 19.2351 28.9648 19.5676L26.1738 21.3791H23.8284V20.3742H23.8282ZM21.352 20.5745L22.6564 20.4691V21.3793H21.1407C20.9442 21.3793 20.8963 21.216 20.8907 21.0791C20.8875 21.0014 20.8948 20.612 21.352 20.5745V20.5745ZM19.9652 20.17C19.7887 20.4594 19.7063 20.7979 19.7198 21.127C19.7233 21.2123 19.7342 21.2944 19.7493 21.3744C19.7493 21.376 19.7484 21.3777 19.7487 21.3792H16.91V19.1548L19.9675 20.1655C19.9665 20.167 19.9661 20.1685 19.9652 20.17V20.17ZM21.1439 22.5511H26.3471C26.4604 22.5511 26.5712 22.5183 26.6661 22.4566L26.9314 22.2844C27.0589 22.8484 27.2043 23.3971 27.3625 23.9154C26.1675 24.2681 24.2707 25.408 24.2707 29.084V32.1762C23.8597 32.2592 23.3733 32.4509 22.9665 32.8766C22.5377 33.3254 22.2928 33.9334 22.234 34.6883H21.052C19.8609 31.2556 19.4079 27.6028 21.1439 22.5511V22.5511ZM22.1097 37.3525C21.8932 36.8544 21.6844 36.3583 21.4879 35.8602H27.5718C28.3603 35.8602 28.76 35.5012 28.76 34.7934V32.7034V30.4923H33.385C33.7086 30.4923 33.9709 30.23 33.9709 29.9063C33.9709 29.5827 33.7086 29.3204 33.385 29.3204H28.7643C28.7718 28.9876 28.7931 28.7154 28.8541 28.5546C28.8837 28.4764 28.9093 28.4089 29.2311 28.4089L31.3349 28.4067C32.6525 28.4055 33.595 28.0867 34.2165 27.4322C34.2453 27.4019 34.2725 27.3701 34.2997 27.3384H38.0268H42.2154V28.9488C42.2154 29.1502 42.0457 29.3204 41.8447 29.3204H36.0115C35.6879 29.3204 35.4256 29.5827 35.4256 29.9063C35.4256 30.23 35.6879 30.4923 36.0115 30.4923H41.5004C41.9636 31.3519 42.3801 32.4215 42.3554 34.1114C41.1961 32.5012 39.3195 31.4658 37.1896 31.4658C35.4792 31.4658 33.8742 32.1367 32.6702 33.3551C31.6018 34.4361 30.9602 35.8391 30.8282 37.3544L22.1097 37.3525ZM37.2627 41.6277C35.431 41.6277 33.8861 40.308 33.5124 38.5265H41.013C40.6392 40.3078 39.0943 41.6277 37.2627 41.6277V41.6277ZM41.6786 37.3546H32.8469H32.0051C32.2928 34.7052 34.5081 32.6377 37.1896 32.6377C39.5439 32.6377 41.5211 34.1901 42.1758 36.3633C42.1779 36.3702 42.18 36.377 42.1824 36.3838C42.275 36.6956 42.3404 37.0202 42.3757 37.3546H41.6786ZM47.2979 25.2144C47.2979 25.7394 46.8712 26.1666 46.3468 26.1666H38.6126V23.1407H47.2979V25.2144ZM47.2979 21.9688H38.6126V20.7227H47.2979V21.9688ZM47.2979 19.5508H38.6126V18.3592C38.6126 17.8341 39.0393 17.407 39.5636 17.407H46.3468C46.8712 17.407 47.2979 17.8342 47.2979 18.3592V19.5508Z" fill="#09A66D"/>
</svg>
