<svg width="56" height="56" viewBox="0 0 56 56" fill="none" xmlns="http://www.w3.org/2000/svg">
<circle cx="28" cy="28" r="28" fill="#F3FBF8"/>
<path d="M42.5827 34.0451C42.365 33.5009 42.0747 32.993 41.7482 32.5213C40.0793 30.0541 37.5034 28.4215 34.6009 28.0224C34.2381 27.9861 33.839 28.0586 33.5487 28.2764C32.0249 29.4011 30.2109 29.9816 28.3242 29.9816C26.4375 29.9816 24.6235 29.4011 23.0997 28.2764C22.8094 28.0586 22.4103 27.9498 22.0475 28.0224C19.145 28.4215 16.5328 30.0541 14.9002 32.5213C14.5736 32.993 14.2834 33.5372 14.0657 34.0451C13.9569 34.2628 13.9931 34.5168 14.102 34.7345C14.3922 35.2424 14.755 35.7504 15.0815 36.1857C15.5895 36.8751 16.1337 37.4918 16.7505 38.0723C17.2584 38.5802 17.8389 39.0519 18.4195 39.5236C21.2856 41.6642 24.7324 42.7889 28.2879 42.7889C31.8435 42.7889 35.2902 41.6641 38.1564 39.5236C38.7369 39.0882 39.3174 38.5802 39.8254 38.0723C40.4059 37.4918 40.9863 36.875 41.4943 36.1857C41.8571 35.7141 42.1837 35.2424 42.4739 34.7345C42.6552 34.5168 42.6915 34.2627 42.5827 34.0451Z" fill="#09A66D"/>
<path d="M28.3084 8C23.7369 8 20 11.7369 20 16.3084C20 20.8799 23.7369 24.6168 28.3084 24.6168C32.8799 24.6168 36.6168 20.8799 36.6168 16.3084C36.6168 11.7369 32.8799 8 28.3084 8Z" fill="#09A66D"/>
</svg>
