<svg width="56" height="56" viewBox="0 0 56 56" fill="none" xmlns="http://www.w3.org/2000/svg">
<circle cx="28" cy="28" r="28" fill="#F3FBF8"/>
<path d="M43.9541 22.5914C43.8438 22.2519 43.5504 22.0046 43.1973 21.9534L33.2772 20.5117L28.8407 11.5226C28.6828 11.2025 28.3569 11 28 11C27.6432 11 27.3173 11.2025 27.1593 11.5226L22.7226 20.5117L12.8027 21.9534C12.4496 22.0046 12.1561 22.2519 12.0459 22.5913C11.9356 22.9308 12.0276 23.3034 12.2831 23.5524L19.4611 30.5495L17.7669 40.4296C17.7065 40.7814 17.8512 41.1368 18.1399 41.3466C18.4285 41.5563 18.8112 41.5841 19.1272 41.4179L28 36.7531L36.8725 41.4179C37.0097 41.49 37.1594 41.5256 37.3087 41.5256C37.5031 41.5256 37.6966 41.4653 37.8598 41.3466C38.1485 41.1368 38.2931 40.7813 38.2328 40.4296L36.5381 30.5495L43.7168 23.5524C43.9724 23.3033 44.0644 22.9307 43.9541 22.5914Z" fill="#FED42D"/>
</svg>
