<svg width="56" height="56" viewBox="0 0 56 56" fill="none" xmlns="http://www.w3.org/2000/svg">
<circle cx="28" cy="28" r="28" fill="#F3FBF8"/>
<g clip-path="url(#clip0_0_1)">
<g clip-path="url(#clip1_0_1)">
<path d="M11.5067 19.5505H17.6862C18.0098 19.5505 18.2721 19.2882 18.2721 18.9645C18.2721 18.6409 18.0098 18.3786 17.6862 18.3786H11.5067C11.1831 18.3786 10.9207 18.6409 10.9207 18.9645C10.9207 19.2882 11.183 19.5505 11.5067 19.5505Z" fill="#09A66D"/>
<path d="M17.4745 22.3714H15.0334C14.7098 22.3714 14.4475 22.6336 14.4475 22.9573C14.4475 23.281 14.7098 23.5432 15.0334 23.5432H17.4745C17.7981 23.5432 18.0604 23.281 18.0604 22.9573C18.0604 22.6336 17.7981 22.3714 17.4745 22.3714Z" fill="#09A66D"/>
<path d="M9.05566 26.4346H15.0332C15.3568 26.4346 15.6191 26.1723 15.6191 25.8487C15.6191 25.525 15.3568 25.2627 15.0332 25.2627H9.05566C8.73207 25.2627 8.46973 25.525 8.46973 25.8487C8.46973 26.1723 8.73207 26.4346 9.05566 26.4346Z" fill="#09A66D"/>
<path d="M18.2721 36.8223C18.2721 36.4986 18.0098 36.2363 17.6862 36.2363H11.5067C11.1831 36.2363 10.9207 36.4986 10.9207 36.8223C10.9207 37.1459 11.1831 37.4082 11.5067 37.4082H17.6862C18.0098 37.4082 18.2721 37.1459 18.2721 36.8223Z" fill="#09A66D"/>
<path d="M17.4745 32.2437H15.0334C14.7098 32.2437 14.4475 32.506 14.4475 32.8296C14.4475 33.1533 14.7098 33.4156 15.0334 33.4156H17.4745C17.7981 33.4156 18.0604 33.1533 18.0604 32.8296C18.0604 32.506 17.7981 32.2437 17.4745 32.2437Z" fill="#09A66D"/>
<path d="M15.6191 29.9382C15.6191 29.6145 15.3568 29.3523 15.0332 29.3523H9.05566C8.73207 29.3523 8.46973 29.6145 8.46973 29.9382C8.46973 30.2619 8.73207 30.5241 9.05566 30.5241H15.0332C15.3568 30.5241 15.6191 30.2619 15.6191 29.9382Z" fill="#09A66D"/>
<path d="M33.4328 20.8489C33.7565 20.8489 34.0188 20.5867 34.0188 20.263V19.3686C34.0188 19.0449 33.7565 18.7827 33.4328 18.7827C33.1092 18.7827 32.8469 19.0449 32.8469 19.3686V20.263C32.8469 20.5867 33.1092 20.8489 33.4328 20.8489Z" fill="#09A66D"/>
<path d="M39.8754 21.4511C39.6465 21.2224 39.2756 21.2224 39.0468 21.4511L38.4144 22.0835C38.1855 22.3124 38.1855 22.6834 38.4144 22.9122C38.6433 23.141 39.0142 23.141 39.243 22.9122L39.8754 22.2798C40.1042 22.051 40.1042 21.68 39.8754 21.4511Z" fill="#09A66D"/>
<path d="M41.0627 27.3075C40.739 27.3075 40.4768 27.5698 40.4768 27.8934C40.4768 28.2171 40.739 28.4794 41.0627 28.4794H41.957C42.2807 28.4794 42.5429 28.2171 42.5429 27.8934C42.5429 27.5698 42.2807 27.3075 41.957 27.3075H41.0627Z" fill="#09A66D"/>
<path d="M39.243 32.8746C39.0141 32.6459 38.6432 32.6459 38.4144 32.8746C38.1855 33.1035 38.1855 33.4745 38.4144 33.7033L39.0468 34.3357C39.2758 34.5646 39.6466 34.5645 39.8755 34.3357C40.1043 34.1068 40.1043 33.7359 39.8755 33.507L39.243 32.8746Z" fill="#09A66D"/>
<path d="M32.8469 35.5239V36.4182C32.8469 36.7419 33.1092 37.0041 33.4328 37.0041C33.7565 37.0041 34.0188 36.7419 34.0188 36.4182V35.5239C34.0188 35.2002 33.7565 34.938 33.4328 34.938C33.1092 34.938 32.8469 35.2003 32.8469 35.5239Z" fill="#09A66D"/>
<path d="M27.6231 32.8746L26.9907 33.507C26.7619 33.736 26.7619 34.1069 26.9907 34.3357C27.2196 34.5646 27.5906 34.5645 27.8193 34.3357L28.4517 33.7033C28.6805 33.4744 28.6805 33.1034 28.4517 32.8746C28.223 32.6459 27.852 32.6459 27.6231 32.8746Z" fill="#09A66D"/>
<path d="M24.9078 27.3075C24.5842 27.3075 24.3219 27.5698 24.3219 27.8934C24.3219 28.2171 24.5842 28.4794 24.9078 28.4794H25.8022C26.1258 28.4794 26.3881 28.2171 26.3881 27.8934C26.3881 27.5698 26.1258 27.3075 25.8022 27.3075H24.9078Z" fill="#09A66D"/>
<path d="M28.4518 22.0835L27.8194 21.4511C27.5906 21.2224 27.2195 21.2224 26.9908 21.4511C26.762 21.68 26.762 22.051 26.9908 22.2798L27.6232 22.9122C27.8521 23.141 28.2231 23.141 28.4518 22.9122C28.6806 22.6834 28.6806 22.3124 28.4518 22.0835Z" fill="#09A66D"/>
<path d="M36.5836 27.8935C36.5836 27.5698 36.3214 27.3075 35.9977 27.3075H34.0188V22.9572C34.0188 22.6335 33.7565 22.3713 33.4328 22.3713C33.1092 22.3713 32.8469 22.6335 32.8469 22.9572V27.8935C32.8469 28.2171 33.1092 28.4794 33.4328 28.4794H35.9977C36.3213 28.4794 36.5836 28.2171 36.5836 27.8935Z" fill="#09A66D"/>
<path d="M44.5432 27.7967C44.8662 27.7771 45.1122 27.4994 45.0926 27.1764C44.7198 21.0278 39.5983 16.2113 33.4328 16.2113C26.9912 16.2113 21.7506 21.4519 21.7506 27.8935C21.7506 34.3351 26.9912 39.5757 33.4328 39.5757C39.2038 39.5757 44.1281 35.3474 44.9847 29.6416C45.0328 29.3216 44.8123 29.0232 44.4922 28.9752C44.173 28.9273 43.8739 29.1475 43.8258 29.4677C43.0563 34.5938 38.6301 38.4039 33.4328 38.4039C27.6374 38.4039 22.9225 33.689 22.9225 27.8936C22.9225 22.0982 27.6374 17.3832 33.4328 17.3832C38.9797 17.3832 43.5875 21.7161 43.9228 27.2475C43.9423 27.5703 44.2198 27.8155 44.5432 27.7967V27.7967Z" fill="#09A66D"/>
<path d="M33.4332 12.8567C31.3722 12.8567 29.3529 13.2842 27.4943 14.0838H17.1561C16.8325 14.0838 16.5701 14.3461 16.5701 14.6698C16.5701 14.9935 16.8325 15.2557 17.1561 15.2557H25.2899C24.1901 15.9635 23.1777 16.8173 22.2851 17.8029C22.0679 18.0427 22.0861 18.4132 22.326 18.6305C22.5659 18.8477 22.9363 18.8294 23.1536 18.5895C25.7788 15.691 29.5256 14.0285 33.4332 14.0285C41.0783 14.0285 47.2982 20.2483 47.2982 27.8935C47.2982 35.5385 41.0784 41.7584 33.4332 41.7584C25.788 41.7584 19.5683 35.5386 19.5683 27.8935C19.5683 25.2163 20.333 22.6178 21.7797 20.3789C21.9554 20.1071 21.8774 19.7445 21.6056 19.5688C21.3338 19.3933 20.9711 19.4711 20.7954 19.743C19.2259 22.1717 18.3964 24.9901 18.3964 27.8935C18.3964 33.1877 21.1468 37.8511 25.2936 40.5312H17.1561C16.8326 40.5312 16.5702 40.7935 16.5702 41.1171C16.5702 41.4408 16.8326 41.7031 17.1561 41.7031H27.4862C29.3112 42.492 31.3219 42.9303 33.4333 42.9303C41.7245 42.9303 48.47 36.1848 48.47 27.8935C48.47 19.6021 41.7245 12.8567 33.4332 12.8567V12.8567Z" fill="#09A66D"/>
</g>
</g>
<defs>
<clipPath id="clip0_0_1">
<rect width="40" height="40" fill="white" transform="translate(8.46973 7.89343)"/>
</clipPath>
<clipPath id="clip1_0_1">
<rect width="40" height="40" fill="white" transform="translate(8.46973 7.89343)"/>
</clipPath>
</defs>
</svg>
